<svg id="Layer_1" data-name="Layer 1" xmlns="http://www.w3.org/2000/svg" viewBox="0 0 800 800"><defs><style>.cls-1{fill:#ff4f00;}.cls-2{fill:#fff;}</style></defs><title>Orange Square Rounded</title><rect class="cls-1" width="800" height="800" rx="100"/><rect class="cls-2" x="357.89" y="410.44" width="84.21" height="189.49"/><path class="cls-2" d="M582.55,347.29h28V599.92h-84.2V347.29h28.18l0-54.51a52.68,52.68,0,0,1-36.75-36.72H490l-90,90-90-90H282.31a52.68,52.68,0,0,1-36.7,36.7V473.6h28.07V599.94h-84.2V473.6h28.06V292.76A52.64,52.64,0,1,1,282.31,228h39.3L400,306.39,478.4,228h39.29a52.64,52.64,0,1,1,64.8,64.76Z"/></svg>